<svg width="42" height="42" viewBox="0 0 42 42" fill="none" xmlns="http://www.w3.org/2000/svg">
<path d="M29.4845 6.42286C25.5705 6.39071 21.6487 6.23767 17.7266 6.33431C13.1846 6.44711 9.64115 6.72085 6.9594 10.353C6.2587 12.0844 5.90448 14.1058 5.73528 16.2158C5.70312 16.7716 5.6708 17.3433 5.63056 17.9312C5.4856 21.5149 5.7272 25.2115 5.64672 28.1427C6.02519 30.0675 6.76613 31.7989 8.15137 33.1197C12.7418 37.4926 22.0835 36.1316 28.204 35.89C31.1435 34.8189 33.5916 33.933 34.9042 30.5748C35.9432 27.9333 35.774 24.567 35.8465 21.7324C35.9834 15.9015 36.2412 7.85642 29.4845 6.42286Z" fill="white"/>
<path d="M27.6887 8.50045C35.5083 9.50705 33.2133 20.8381 32.9958 26.3304C32.8749 29.3504 32.3355 31.6858 29.2189 32.7327C25.1197 34.1098 19.0798 33.6507 14.9001 33.0388C12.1056 32.636 9.91509 31.7985 9.142 28.8994C7.91788 24.317 8.26419 18.116 8.79569 13.4451C8.81185 13.3565 8.83593 13.292 8.87616 13.2356C8.94855 6.24566 23.6217 7.97703 27.6887 8.50045Z" fill="#284B63"/>
<path d="M30.9341 12.761C30.9502 10.8362 28.5503 10.2242 27.2617 11.4081C26.9154 11.7302 26.7543 12.2214 26.7302 12.7529C26.859 13.4375 27.2698 14.1139 27.8013 14.5005C29.0496 15.3783 30.9179 14.2106 30.9341 12.761Z" fill="white"/>
<path d="M27.3664 16.5057C24.6122 12.3342 18.395 11.9234 15.053 15.6198C12.7739 18.1405 12.6128 22.3363 14.3282 25.316C14.4248 25.3482 14.5134 25.4046 14.594 25.5012C17.3805 28.6097 22.1802 29.7372 25.6271 26.9186C28.7033 24.398 29.6052 19.8961 27.3664 16.5057Z" fill="white"/>
<path d="M16.3899 22.2236C17.3644 24.9618 20.8273 27.1361 23.5895 25.445C29.1704 22.0303 22.6151 12.7531 18.0166 16.8682C16.3899 17.8265 15.7537 20.4276 16.3899 22.2236Z" fill="#284B63"/>
</svg>
