<svg width="35" height="35" viewBox="0 0 35 35" fill="none" xmlns="http://www.w3.org/2000/svg">
<path d="M33.0219 4.62082H1.97815C0.887491 4.62082 0 5.50831 0 6.59897V9.46673C0 10.5575 0.887491 11.445 1.97815 11.445H33.0219C34.1125 11.445 35 10.5575 35 9.46673V6.59897C35 5.50831 34.1125 4.62082 33.0219 4.62082Z" fill="white"/>
<path d="M33.0219 16H1.97815C0.887491 16 0 16.8875 0 17.9781V20.846C0 21.9367 0.887491 22.8242 1.97815 22.8242H33.0219C34.1125 22.8242 35 21.9367 35 20.846V17.9781C35 16.8875 34.1125 16 33.0219 16Z" fill="white"/>
<path d="M33.0219 28H1.97815C0.887491 28 0 28.8874 0 29.9783V32.846C0 33.9367 0.887491 34.8242 1.97815 34.8242H33.0219C34.1125 34.8242 35 33.9367 35 32.846V29.9783C35 28.8874 34.1125 28 33.0219 28Z" fill="white"/>
</svg>
