<svg width="35" height="28" viewBox="0 0 35 28" fill="none" xmlns="http://www.w3.org/2000/svg">
<path d="M34.1013 3.1992C33.5532 3.43512 32.9896 3.63423 32.4138 3.79588C33.0955 3.04771 33.6153 2.16739 33.9326 1.20406C34.0037 0.988125 33.93 0.75177 33.7471 0.610547C33.5644 0.469215 33.3106 0.452286 33.1095 0.567951C31.8866 1.27177 30.5672 1.77758 29.1838 2.07335C27.7902 0.751989 25.8975 0 23.9409 0C19.8107 0 16.4505 3.26058 16.4505 7.26835C16.4505 7.584 16.4711 7.8979 16.5118 8.20744C11.3866 7.77077 6.62185 5.32629 3.34988 1.43156C3.23327 1.29274 3.05363 1.21793 2.86972 1.23224C2.68569 1.24622 2.52035 1.34692 2.42738 1.50168C1.76376 2.60668 1.41292 3.87048 1.41292 5.15634C1.41292 6.9077 2.0573 8.5694 3.19557 9.86782C2.84946 9.7515 2.5136 9.60612 2.19304 9.43345C2.02094 9.3405 1.81092 9.34192 1.63995 9.43705C1.46886 9.53218 1.3616 9.70715 1.3571 9.8984C1.35631 9.93062 1.35631 9.96284 1.35631 9.9955C1.35631 12.6097 2.80624 14.9633 5.023 16.2461C4.83256 16.2277 4.64223 16.2009 4.45314 16.1658C4.2582 16.1297 4.05774 16.196 3.92627 16.3403C3.79458 16.4844 3.75102 16.6854 3.81169 16.8689C4.63221 19.3548 6.74475 21.1833 9.29862 21.7407C7.18045 23.0281 4.75816 23.7024 2.21533 23.7024C1.68474 23.7024 1.15112 23.6722 0.628867 23.6122C0.369429 23.5823 0.121358 23.731 0.0330024 23.9704C-0.0553531 24.2099 0.0382925 24.4769 0.259012 24.6142C3.52569 26.6467 7.30291 27.721 11.1821 27.721C18.8081 27.721 23.5788 24.2314 26.2379 21.3039C29.5538 17.6537 31.4555 12.822 31.4555 8.04808C31.4555 7.84864 31.4523 7.64724 31.446 7.44649C32.7542 6.49004 33.8806 5.33251 34.7971 4.00209C34.9363 3.80003 34.9213 3.53298 34.76 3.34698C34.5989 3.16087 34.3305 3.10068 34.1013 3.1992Z" fill="white"/>
</svg>
