<?xml version="1.0" encoding="UTF-8"?><svg id="Lager_2" xmlns="http://www.w3.org/2000/svg" viewBox="0 0 102.66 60.01"><defs><style>.cls-1{fill:#fff;}</style></defs><g id="Logotype___Colors"><g id="Lager_9"><g><polygon class="cls-1" points="0 43.85 25.74 15.98 0 15.98 0 43.85"/><polygon class="cls-1" points="34.49 15.98 8.5 43.89 34.49 43.89 34.49 15.98"/><polygon class="cls-1" points="25.74 8.42 0 0 0 8.42 25.74 8.42"/><polygon class="cls-1" points="34.49 60.01 34.49 51.59 8.5 51.59 34.49 60.01"/><g><path class="cls-1" d="M46.89,42.53c-1.08-1.01-1.62-2.54-1.62-4.6s.55-3.42,1.64-4.4c1.1-.98,2.74-1.47,4.93-1.47h5.07l.26,3.54h-5.31c-.86,0-1.51,.19-1.94,.57-.43,.38-.65,.97-.65,1.75,0,.83,.28,1.44,.84,1.84,.56,.4,1.41,.6,2.54,.6,1.39,0,2.42-.16,3.09-.48,.68-.32,1.01-.81,1.01-1.49l.38,2.82c-.21,.62-.57,1.14-1.09,1.56-.52,.42-1.14,.73-1.87,.94-.73,.21-1.53,.31-2.39,.31-2.18,0-3.81-.5-4.89-1.51Zm9.85-11.3c0-1.1-.31-1.96-.94-2.57-.63-.61-1.51-.91-2.66-.91-.73,0-1.45,.12-2.15,.36-.71,.24-1.34,.58-1.9,1.01l-2.9-2.55c.74-.9,1.72-1.6,2.92-2.1,1.2-.5,2.54-.75,4.02-.75,1.61,0,2.98,.29,4.12,.87,1.14,.58,2.02,1.42,2.62,2.51,.6,1.1,.9,2.42,.9,3.97v12.7h-4.03v-12.53Z"/><path class="cls-1" d="M66.07,16.07h4.36v27.69h-4.36V16.07Zm1.97,20.38l9.29-12.45h4.84l-13.91,17.63-.22-5.18Zm4.43-3.5l3.27-2.59,7.35,13.41h-4.91l-5.71-10.82Z"/><path class="cls-1" d="M85.71,16.07h4.34v4.55h-4.34v-4.55Zm0,7.92h4.34v19.77h-4.34V23.99Z"/><path class="cls-1" d="M93.76,23.99h8.91v3.98h-8.91v-3.98Zm3.07,18.54c-.74-.88-1.11-2.19-1.11-3.91V18.24h4.36v19.75c0,.48,.09,.85,.27,1.11,.18,.26,.45,.39,.8,.39h1.51v4.36h-2.34c-1.59,0-2.76-.44-3.5-1.32Z"/></g></g></g></g></svg>